<svg width="251" height="251" viewBox="0 0 251 251" fill="none" xmlns="http://www.w3.org/2000/svg">
<path d="M101 250C156.228 250 201 205.228 201 150C201 94.7715 156.228 50 101 50C45.7715 50 1 94.7715 1 150C1 205.228 45.7715 250 101 250Z" fill="#3494CE" stroke="#515F74" stroke-width="2" stroke-miterlimit="10"/>
<path d="M159.565 155.299L105.132 140.64L145.988 78.5938L39.9914 142.252L94.4262 156.911L53.568 218.963L159.565 155.299Z" fill="#38576A"/>
<path d="M176 150C217.421 150 251 116.421 251 75C251 33.5786 217.421 0 176 0C134.579 0 101 33.5786 101 75C101 116.421 134.579 150 176 150Z" fill="#F0B90B"/>
<path fill-rule="evenodd" clip-rule="evenodd" d="M144.081 55.95L176.031 24L188.77 36.7395L156.82 68.6895L144.081 55.95ZM144.104 94.1295L195.163 43.0703L207.903 55.8098L156.844 106.869L144.104 94.1295ZM214.26 62.2027L163.2 113.262L175.939 126L227 74.9415L214.26 62.2027ZM125 75.027L137.739 62.2875L150.479 75.027L137.739 87.7665L125 75.027Z" fill="white"/>
</svg>
