<?xml version="1.0" standalone="no"?>
<!DOCTYPE svg PUBLIC "-//W3C//DTD SVG 20010904//EN"
 "http://www.w3.org/TR/2001/REC-SVG-20010904/DTD/svg10.dtd">
<svg version="1.0" xmlns="http://www.w3.org/2000/svg"
 width="400.000000pt" height="400.000000pt" viewBox="0 0 400.000000 400.000000"
 preserveAspectRatio="xMidYMid meet">

<g transform="translate(0.000000,400.000000) scale(0.100000,-0.100000)"
fill="#000000" stroke="none">
<path d="M1020 3730 c0 -5 -13 -10 -30 -10 -16 0 -30 -4 -30 -10 0 -5 -9 -10
-20 -10 -11 0 -20 -4 -20 -10 0 -5 -8 -10 -18 -10 -10 0 -24 -9 -32 -20 -8
-11 -20 -20 -27 -20 -8 0 -38 -25 -68 -55 -30 -30 -55 -60 -55 -68 0 -7 -9
-19 -20 -27 -11 -8 -20 -22 -20 -32 0 -10 -4 -18 -10 -18 -5 0 -10 -9 -10 -20
0 -11 -4 -20 -10 -20 -5 0 -10 -18 -10 -40 0 -22 -4 -40 -10 -40 -6 0 -10 -40
-10 -100 0 -60 4 -100 10 -100 6 0 10 -13 10 -30 0 -16 5 -30 10 -30 6 0 10
-13 10 -30 0 -16 5 -30 10 -30 6 0 10 -8 10 -18 0 -10 9 -24 20 -32 11 -8 20
-20 20 -28 0 -17 65 -82 82 -82 8 0 20 -9 28 -20 8 -11 22 -20 32 -20 10 0 18
-4 18 -10 0 -5 7 -10 16 -10 23 0 44 -25 44 -54 0 -14 5 -26 10 -26 6 0 10
-13 10 -30 0 -16 5 -30 10 -30 6 0 10 -13 10 -30 0 -16 5 -30 10 -30 6 0 10
-9 10 -20 0 -11 5 -20 10 -20 6 0 10 -9 10 -20 0 -11 5 -20 10 -20 6 0 10 -9
10 -20 0 -11 5 -20 10 -20 6 0 10 -9 10 -20 0 -11 5 -20 10 -20 6 0 10 -9 10
-20 0 -11 5 -20 10 -20 6 0 10 -8 10 -18 0 -10 9 -24 20 -32 11 -8 20 -22 20
-32 0 -10 5 -18 10 -18 6 0 10 -7 10 -16 0 -9 13 -29 30 -44 16 -15 30 -33 30
-40 0 -7 13 -25 30 -40 17 -15 30 -33 30 -39 0 -17 288 -301 305 -301 25 0 17
-30 -15 -60 -17 -15 -30 -34 -30 -42 0 -7 -9 -20 -20 -28 -11 -8 -20 -21 -20
-30 0 -9 -9 -22 -20 -30 -11 -8 -20 -22 -20 -32 0 -10 -4 -18 -10 -18 -5 0
-10 -13 -10 -30 0 -16 -4 -30 -10 -30 -5 0 -10 -9 -10 -20 0 -11 -4 -20 -10
-20 -5 0 -10 -18 -10 -40 0 -22 -4 -40 -10 -40 -5 0 -10 -22 -10 -50 0 -27 -4
-50 -10 -50 -6 0 -10 -50 -10 -130 0 -80 4 -130 10 -130 6 0 10 -18 10 -40 0
-22 5 -40 10 -40 6 0 10 -13 10 -30 0 -16 5 -30 10 -30 6 0 10 -9 10 -20 0
-11 5 -20 10 -20 6 0 10 -8 10 -18 0 -10 9 -24 20 -32 11 -8 20 -20 20 -27 0
-17 146 -163 163 -163 7 0 19 -9 27 -20 8 -11 22 -20 32 -20 10 0 18 -4 18
-10 0 -5 8 -10 18 -10 10 0 24 -9 32 -20 8 -12 26 -20 42 -20 15 0 28 -4 28
-10 0 -5 9 -10 20 -10 11 0 20 -4 20 -10 0 -5 14 -10 30 -10 17 0 30 -4 30
-10 0 -5 14 -10 30 -10 17 0 30 -4 30 -10 0 -5 9 -10 20 -10 11 0 20 -4 20
-10 0 -5 7 -10 16 -10 9 0 29 -13 44 -30 15 -16 35 -30 44 -30 9 0 16 -4 16
-10 0 -5 9 -10 20 -10 11 0 20 -4 20 -10 0 -5 14 -10 30 -10 17 0 30 -4 30
-10 0 -5 14 -10 30 -10 17 0 30 -4 30 -10 0 -5 23 -10 50 -10 28 0 50 -4 50
-10 0 -6 33 -10 80 -10 47 0 80 4 80 10 0 6 27 10 60 10 33 0 60 4 60 10 0 6
14 10 30 10 17 0 30 5 30 10 0 6 14 10 30 10 17 0 30 5 30 10 0 6 9 10 20 10
11 0 20 5 20 10 0 6 9 10 20 10 11 0 20 5 20 10 0 6 8 10 18 10 10 0 24 9 32
20 8 11 21 20 30 20 9 0 22 9 30 20 8 11 20 20 27 20 17 0 203 186 203 203 0
7 9 19 20 27 11 8 20 22 20 32 0 10 5 18 10 18 6 0 10 9 10 20 0 11 5 20 10
20 6 0 10 9 10 20 0 11 5 20 10 20 6 0 10 14 10 30 0 17 5 30 10 30 6 0 10 23
10 50 0 28 5 50 10 50 6 0 10 70 10 190 0 120 -4 190 -10 190 -5 0 -10 23 -10
50 0 28 -4 50 -10 50 -5 0 -10 18 -10 40 0 22 -4 40 -10 40 -5 0 -10 18 -10
40 0 22 -4 40 -10 40 -5 0 -10 14 -10 30 0 17 -4 30 -10 30 -5 0 -10 9 -10 20
0 11 -4 20 -10 20 -5 0 -10 14 -10 30 0 17 -4 30 -10 30 -5 0 -10 9 -10 20 0
11 -4 20 -10 20 -5 0 -10 14 -10 30 0 17 -4 30 -10 30 -5 0 -10 9 -10 20 0 11
-4 20 -10 20 -5 0 -10 9 -10 20 0 11 -4 20 -10 20 -5 0 -10 9 -10 20 0 11 -4
20 -10 20 -5 0 -10 8 -10 18 0 10 -9 24 -20 32 -11 8 -20 22 -20 32 0 10 -4
18 -10 18 -5 0 -10 7 -10 15 0 20 -45 65 -65 65 -8 0 -15 5 -15 10 0 6 -9 10
-20 10 -11 0 -20 5 -20 10 0 6 -9 10 -20 10 -11 0 -20 5 -20 10 0 6 -9 10 -20
10 -11 0 -20 5 -20 10 0 6 -13 10 -28 10 -16 0 -34 8 -42 20 -8 11 -22 20 -32
20 -10 0 -18 5 -18 10 0 6 -9 10 -20 10 -11 0 -20 5 -20 10 0 6 -9 10 -20 10
-11 0 -20 5 -20 10 0 6 -9 10 -20 10 -11 0 -20 5 -20 10 0 6 -8 10 -18 10 -10
0 -24 9 -32 20 -8 11 -21 20 -30 20 -9 0 -22 9 -30 20 -8 11 -21 20 -30 20 -9
0 -22 9 -30 20 -8 11 -21 20 -28 20 -8 0 -27 14 -42 30 -15 17 -33 30 -39 30
-15 0 -441 427 -441 441 0 7 -10 20 -22 30 l-21 19 21 19 c15 12 22 30 22 55
0 20 5 36 10 36 6 0 10 9 10 20 0 11 -4 20 -10 20 -5 0 -10 16 -10 35 0 29 -9
44 -45 80 -29 30 -53 45 -70 45 -14 0 -25 5 -25 10 0 6 -13 10 -30 10 -16 0
-30 5 -30 10 0 6 -9 10 -20 10 -11 0 -20 5 -20 10 0 6 -9 10 -20 10 -11 0 -20
5 -20 10 0 6 -7 10 -15 10 -18 0 -65 44 -65 60 0 15 -147 160 -163 160 -7 0
-19 9 -27 20 -8 11 -22 20 -32 20 -10 0 -18 5 -18 10 0 6 -9 10 -20 10 -11 0
-20 5 -20 10 0 6 -13 10 -30 10 -16 0 -30 5 -30 10 0 6 -40 10 -100 10 -60 0
-100 -4 -100 -10z m120 -80 c0 -5 18 -10 40 -10 22 0 40 -4 40 -10 0 -5 14
-10 30 -10 17 0 30 -4 30 -10 0 -5 7 -10 16 -10 8 0 33 -18 54 -40 21 -22 46
-40 54 -40 9 0 16 -7 16 -15 0 -20 165 -185 185 -185 8 0 15 -4 15 -10 0 -5 9
-10 20 -10 11 0 20 -4 20 -10 0 -5 14 -10 30 -10 17 0 30 -4 30 -10 0 -5 14
-10 30 -10 17 0 30 -4 30 -10 0 -5 9 -10 20 -10 15 0 20 -7 20 -29 0 -16 6
-32 13 -35 10 -5 10 -7 0 -12 -7 -3 -13 -19 -13 -35 0 -16 -4 -29 -10 -29 -5
0 -10 -7 -10 -16 0 -19 -24 -44 -42 -44 -8 0 -20 -9 -28 -20 -8 -11 -22 -20
-32 -20 -10 0 -18 -4 -18 -10 0 -5 -18 -10 -40 -10 -22 0 -40 -4 -40 -10 0 -5
-22 -10 -50 -10 -27 0 -50 -4 -50 -10 0 -6 -50 -10 -130 -10 -80 0 -130 4
-130 10 0 6 -18 10 -40 10 -22 0 -40 5 -40 10 0 6 -8 10 -18 10 -10 0 -24 9
-32 20 -8 11 -20 20 -28 20 -17 0 -82 65 -82 82 0 8 -9 20 -20 28 -11 8 -20
22 -20 32 0 10 -4 18 -10 18 -5 0 -10 7 -10 16 0 22 -25 44 -50 44 -12 0 -28
-6 -36 -14 -16 -17 -19 -66 -4 -66 6 0 10 -8 10 -18 0 -10 9 -24 20 -32 11 -8
20 -22 20 -32 0 -10 5 -18 10 -18 6 0 10 -33 10 -80 0 -73 -2 -80 -20 -80 -11
0 -20 5 -20 10 0 6 -7 10 -15 10 -19 0 -65 44 -65 62 0 8 -9 20 -20 28 -11 8
-20 22 -20 32 0 10 -4 18 -10 18 -5 0 -10 14 -10 30 0 17 -4 30 -10 30 -6 0
-10 43 -10 110 0 67 4 110 10 110 6 0 10 9 10 20 0 11 5 20 10 20 6 0 10 9 10
20 0 11 5 20 10 20 6 0 10 7 10 15 0 14 62 85 75 85 3 0 5 -9 5 -20 0 -11 -4
-20 -10 -20 -6 0 -10 -27 -10 -60 0 -48 3 -60 16 -60 31 0 44 27 44 94 0 37 4
66 10 66 6 0 10 9 10 20 0 11 5 20 10 20 6 0 10 7 10 16 0 23 25 44 54 44 14
0 26 5 26 10 0 6 14 10 30 10 17 0 30 5 30 10 0 6 14 10 30 10 17 0 30 -4 30
-10z m705 -725 c19 -19 35 -39 35 -45 0 -14 387 -400 401 -400 6 0 24 -13 39
-30 15 -16 33 -30 40 -30 7 0 25 -13 40 -30 15 -16 35 -30 44 -30 9 0 16 -4
16 -10 0 -5 8 -10 18 -10 10 0 24 -9 32 -20 8 -11 22 -20 32 -20 10 0 18 -4
18 -10 0 -5 8 -10 18 -10 10 0 24 -9 32 -20 8 -11 22 -20 32 -20 10 0 18 -4
18 -10 0 -5 9 -10 20 -10 11 0 20 -4 20 -10 0 -5 9 -10 20 -10 11 0 20 -4 20
-10 0 -5 9 -10 20 -10 11 0 20 -4 20 -10 0 -5 9 -10 20 -10 11 0 20 -4 20 -10
0 -5 9 -10 20 -10 11 0 20 -4 20 -10 0 -5 9 -10 20 -10 11 0 20 -4 20 -10 0
-5 11 -10 25 -10 29 0 75 -40 75 -65 0 -8 5 -15 10 -15 6 0 10 -8 10 -18 0
-10 9 -24 20 -32 11 -8 20 -22 20 -32 0 -10 5 -18 10 -18 6 0 10 -9 10 -20 0
-11 5 -20 10 -20 6 0 10 -9 10 -20 0 -11 5 -20 10 -20 6 0 10 -13 10 -30 0
-16 5 -30 10 -30 6 0 10 -9 10 -20 0 -11 5 -20 10 -20 6 0 10 -9 10 -20 0 -11
5 -20 10 -20 6 0 10 -13 10 -30 0 -16 5 -30 10 -30 6 0 10 -13 10 -30 0 -16 5
-30 10 -30 6 0 10 -13 10 -30 0 -16 5 -30 10 -30 6 0 10 -18 10 -40 0 -22 5
-40 10 -40 6 0 10 -22 10 -50 0 -27 5 -50 10 -50 6 0 10 -67 10 -180 0 -113
-4 -180 -10 -180 -5 0 -10 -18 -10 -40 0 -22 -4 -40 -10 -40 -5 0 -10 -13 -10
-30 0 -16 -4 -30 -10 -30 -5 0 -10 -9 -10 -20 0 -11 -4 -20 -10 -20 -5 0 -10
-9 -10 -20 0 -11 -4 -20 -10 -20 -5 0 -10 -7 -10 -16 0 -9 -14 -29 -30 -44
-17 -15 -30 -33 -30 -39 0 -15 -86 -101 -101 -101 -6 0 -24 -13 -39 -30 -15
-16 -35 -30 -44 -30 -9 0 -16 -4 -16 -10 0 -5 -8 -10 -18 -10 -10 0 -24 -9
-32 -20 -8 -11 -22 -20 -32 -20 -10 0 -18 -4 -18 -10 0 -5 -13 -10 -30 -10
-16 0 -30 -4 -30 -10 0 -5 -9 -10 -20 -10 -11 0 -20 -4 -20 -10 0 -5 -18 -10
-40 -10 -22 0 -40 -4 -40 -10 0 -6 -53 -10 -140 -10 -87 0 -140 4 -140 10 0 6
-13 10 -30 10 -16 0 -30 5 -30 10 0 6 -13 10 -30 10 -16 0 -30 5 -30 10 0 6
-9 10 -20 10 -11 0 -20 5 -20 10 0 6 -7 10 -15 10 -20 0 -205 185 -205 205 0
8 -4 15 -10 15 -5 0 -10 9 -10 20 0 11 -4 20 -10 20 -5 0 -10 14 -10 30 0 17
-4 30 -10 30 -5 0 -10 23 -10 50 0 28 -4 50 -10 50 -5 0 -10 12 -10 26 0 45
-38 68 -66 40 -17 -17 -20 -166 -4 -166 6 0 10 -13 10 -30 0 -16 5 -30 10 -30
6 0 10 -13 10 -30 0 -16 5 -30 10 -30 6 0 10 -9 10 -20 0 -11 5 -20 10 -20 6
0 10 -4 10 -10 0 -5 -9 -10 -20 -10 -11 0 -20 5 -20 10 0 6 -9 10 -20 10 -11
0 -20 5 -20 10 0 6 -9 10 -20 10 -11 0 -20 5 -20 10 0 6 -8 10 -18 10 -10 0
-24 9 -32 20 -8 11 -20 20 -27 20 -17 0 -143 126 -143 143 0 7 -9 19 -20 27
-11 8 -20 22 -20 32 0 10 -4 18 -10 18 -5 0 -10 14 -10 30 0 17 -4 30 -10 30
-5 0 -10 14 -10 30 0 17 -4 30 -10 30 -6 0 -10 53 -10 140 0 87 4 140 10 140
6 0 10 23 10 50 0 28 5 50 10 50 6 0 10 14 10 30 0 17 5 30 10 30 6 0 10 9 10
20 0 11 5 20 10 20 6 0 10 9 10 20 0 11 5 20 10 20 6 0 10 9 10 20 0 11 5 20
10 20 6 0 10 7 10 16 0 8 18 33 40 54 22 21 40 46 40 54 0 9 8 16 20 16 11 0
20 -4 20 -10 0 -5 8 -10 18 -10 10 0 24 -9 32 -20 8 -11 22 -20 32 -20 10 0
18 -4 18 -10 0 -5 9 -10 20 -10 11 0 20 -4 20 -10 0 -5 9 -10 20 -10 11 0 20
-4 20 -10 0 -5 9 -10 20 -10 11 0 20 -4 20 -10 0 -5 9 -10 20 -10 11 0 20 -4
20 -10 0 -5 9 -10 20 -10 11 0 20 -4 20 -10 0 -5 14 -10 30 -10 17 0 30 -4 30
-10 0 -15 49 -12 66 4 8 8 14 31 14 50 0 33 -2 36 -30 36 -16 0 -30 5 -30 10
0 6 -13 10 -30 10 -16 0 -30 5 -30 10 0 6 -9 10 -20 10 -11 0 -20 5 -20 10 0
6 -9 10 -20 10 -11 0 -20 5 -20 10 0 6 -9 10 -20 10 -11 0 -20 5 -20 10 0 6
-9 10 -20 10 -11 0 -20 5 -20 10 0 6 -8 10 -18 10 -10 0 -24 9 -32 20 -8 11
-21 20 -30 20 -9 0 -22 9 -30 20 -8 11 -21 20 -28 20 -8 0 -27 14 -42 30 -15
17 -33 30 -39 30 -14 0 -281 266 -281 281 0 6 -18 28 -40 49 -22 21 -40 45
-40 52 0 7 -9 20 -20 28 -11 8 -20 21 -20 30 0 9 -9 22 -20 30 -11 8 -20 22
-20 32 0 10 -4 18 -10 18 -5 0 -10 8 -10 18 0 10 -9 24 -20 32 -11 8 -20 22
-20 32 0 10 -4 18 -10 18 -5 0 -10 9 -10 20 0 11 -4 20 -10 20 -5 0 -10 9 -10
20 0 11 -4 20 -10 20 -5 0 -10 14 -10 30 0 17 -4 30 -10 30 -5 0 -10 14 -10
30 0 17 -4 30 -10 30 -5 0 -10 14 -10 30 0 17 -4 30 -10 30 -6 0 -10 30 -10
70 0 40 -4 70 -10 70 -5 0 -10 9 -10 20 0 11 5 20 10 20 6 0 10 -4 10 -10 0
-5 9 -10 20 -10 11 0 20 -4 20 -10 0 -5 9 -10 20 -10 11 0 20 -4 20 -10 0 -5
14 -10 30 -10 17 0 30 -4 30 -10 0 -5 23 -10 50 -10 28 0 50 -4 50 -10 0 -6
43 -10 110 -10 67 0 110 4 110 10 0 6 27 10 60 10 33 0 60 4 60 10 0 6 18 10
40 10 22 0 40 5 40 10 0 6 9 10 20 10 11 0 20 5 20 10 0 6 9 10 20 10 11 0 20
5 20 10 0 6 9 10 20 10 11 0 20 5 20 10 0 17 9 12 45 -25z"/>
</g>
</svg>
