<svg width="253" height="254" viewBox="0 0 253 254" fill="none" xmlns="http://www.w3.org/2000/svg">
<path d="M101 253C156.228 253 201 208.228 201 153C201 97.7715 156.228 53 101 53C45.7715 53 1 97.7715 1 153C1 208.228 45.7715 253 101 253Z" fill="#3494CE" stroke="#515F74" stroke-width="2" stroke-miterlimit="10"/>
<path d="M159.565 158.299L105.132 143.64L145.988 81.5938L39.9914 145.252L94.4262 159.911L53.568 221.963L159.565 158.299Z" fill="#38576A"/>
<path d="M176 152C217.421 152 251 118.421 251 77C251 35.5786 217.421 2 176 2C134.579 2 101 35.5786 101 77C101 118.421 134.579 152 176 152Z" fill="white" stroke="#F2BA29" stroke-width="3" stroke-miterlimit="10"/>
<path d="M154.879 68.0075L177.902 45.0141L200.911 68.0224L214.288 54.6455L177.902 18.2454L141.532 54.6306L154.909 68.0075H154.879ZM118.702 77.4606L132.079 64.0836L145.456 77.4606L132.079 90.8375L118.702 77.4606ZM154.909 86.8988L177.902 109.907L200.911 86.8988L214.288 100.276L177.902 136.661L141.532 100.291L154.909 86.9136V86.8988ZM210.349 77.4754L223.726 64.0985L237.103 77.4754L223.726 90.8524L210.349 77.4754Z" fill="#F3BA2C"/>
<path d="M191.443 77.4456L177.902 63.8755L167.87 73.9082L166.725 75.0527L164.347 77.4308L177.902 91.0009L191.487 77.4159" fill="#F3BA2C"/>
</svg>
