<svg width="251" height="251" viewBox="0 0 251 251" fill="none" xmlns="http://www.w3.org/2000/svg">
<path d="M101 250C156.228 250 201 205.228 201 150C201 94.7715 156.228 50 101 50C45.7715 50 1 94.7715 1 150C1 205.228 45.7715 250 101 250Z" fill="#3494CE" stroke="#515F74" stroke-width="2" stroke-miterlimit="10"/>
<path d="M159.565 155.299L105.132 140.64L145.988 78.5938L39.9914 142.252L94.4262 156.911L53.568 218.963L159.565 155.299Z" fill="#38576A"/>
<path d="M176 150C217.421 150 251 116.421 251 75C251 33.5793 217.421 0 176 0C134.579 0 101 33.5793 101 75C101 116.421 134.579 150 176 150Z" fill="#2775CA"/>
<path d="M157.871 144.66C157.871 147.007 155.972 148.346 153.738 147.676C138.415 142.783 125.047 133.145 115.567 120.156C106.086 107.168 100.985 91.5019 101 75.4244C101 41.5882 123.235 12.8898 153.736 3.17243C156.081 2.50259 157.869 3.84226 157.869 6.1867V12.106C157.869 13.6689 156.64 15.5668 155.076 16.1273C130.942 24.8376 113.624 48.0656 113.624 75.3128C113.624 102.56 130.942 125.788 155.188 134.722C156.64 135.28 157.98 137.066 157.98 138.743V144.66H157.869H157.871ZM182.473 121.283C182.473 123.069 181.02 124.409 179.345 124.409H173.088C171.3 124.409 169.958 122.957 169.958 121.283V111.233C156.105 109.335 149.4 101.63 147.613 91.1331C147.543 90.7098 147.566 90.2765 147.679 89.8628C147.793 89.449 147.994 89.0647 148.27 88.736C148.546 88.4073 148.889 88.1421 149.277 87.9585C149.665 87.7749 150.088 87.6773 150.517 87.6723H157.668C159.121 87.6723 160.461 88.7886 160.796 90.24C162.139 96.4941 165.713 101.295 176.885 101.295C185.042 101.295 190.852 96.7151 190.852 89.905C190.852 83.095 187.39 80.525 175.433 78.5154C157.668 76.2826 149.289 70.9216 149.289 56.962C149.289 46.2422 157.333 37.9785 169.958 36.1899V26.3633C169.958 24.5771 171.412 23.2374 173.088 23.2374H179.345C181.132 23.2374 182.473 24.6887 182.473 26.3633V36.4132C192.639 38.1995 199.12 44.0071 201.243 53.6104C201.689 55.3967 200.237 57.1852 198.338 57.1852H191.634C190.182 57.1852 189.065 56.1805 188.618 54.8408C186.829 48.6983 182.473 46.1306 174.875 46.1306C166.495 46.1306 162.139 50.1496 162.139 55.8456C162.139 61.8764 164.596 64.8907 177.444 66.677C194.873 69.0214 203.814 74.0475 203.814 88.7886C203.814 100.067 195.434 109.114 182.473 111.235V121.285V121.283ZM198.373 147.828C196.028 148.497 194.24 147.158 194.24 144.813V138.894C194.24 137.108 195.357 135.545 197.033 134.875C221.278 125.941 238.596 102.713 238.596 75.4663C238.596 48.2192 221.167 25.1027 196.921 16.1692C195.469 15.611 194.129 13.8247 194.129 12.1501V6.2309C194.129 3.88646 196.028 2.43514 198.262 3.21662C213.584 8.11044 226.952 17.7485 236.433 30.7369C245.913 43.7254 251.015 59.3911 251 75.4686C251.111 109.305 228.988 138.003 198.373 147.83V147.828Z" fill="white"/>
</svg>
