<?xml version="1.0" encoding="utf-8"?>
<!-- Generator: Adobe Illustrator 23.0.2, SVG Export Plug-In . SVG Version: 6.00 Build 0)  -->
<svg version="1.1" id="图层_1" xmlns="http://www.w3.org/2000/svg" xmlns:xlink="http://www.w3.org/1999/xlink" x="0px" y="0px"
	 viewBox="0 0 1535.59 432.56" style="enable-background:new 0 0 1535.59 432.56;" xml:space="preserve">
<style type="text/css">
	.st0{fill:url(#SVGID_1_);}
	.st1{fill:url(#SVGID_4_);}
	.st2{fill:none;}
</style>
<g>
	<linearGradient id="SVGID_1_" gradientUnits="userSpaceOnUse" x1="-748.405" y1="525.0462" x2="-748.405" y2="525.0462">
		<stop  offset="0" style="stop-color:#0098D0"/>
		<stop  offset="0.2606" style="stop-color:#0298D0"/>
		<stop  offset="0.3544" style="stop-color:#0999D0"/>
		<stop  offset="0.4213" style="stop-color:#149BD1"/>
		<stop  offset="0.4751" style="stop-color:#259ED2"/>
		<stop  offset="0.5" style="stop-color:#30A0D2"/>
		<stop  offset="0.5124" style="stop-color:#2B98CB"/>
		<stop  offset="0.5548" style="stop-color:#1E82B8"/>
		<stop  offset="0.6048" style="stop-color:#1471A9"/>
		<stop  offset="0.6666" style="stop-color:#0D669F"/>
		<stop  offset="0.7534" style="stop-color:#095F99"/>
		<stop  offset="0.9944" style="stop-color:#085D97"/>
	</linearGradient>
	<path class="st0" d="M-748.4,525.05"/>
</g>
<g>
	<defs>
		<path id="SVGID_2_" d="M-747.87,525.06"/>
	</defs>
	<clipPath id="SVGID_3_">
		<use xlink:href="#SVGID_2_"  style="overflow:visible;"/>
	</clipPath>
</g>
<g>
	<g>
		<path d="M449.07,236.4l-0.59,47.44l-31.96-0.18l1.5-121.25l67.91,0.37l-0.2,16.24l-35.95-0.2l-0.52,41.75l35.95,0.2l0.72-57.99
			l32.43,0.18l-0.92,73.8L449.07,236.4z"/>
		<path d="M620.32,251.88l-59.44-0.33l-0.22,17.71l63.11,0.35l-6.73,14.73l-87.4-0.48l1.06-85.19l59.44,0.33l-0.19,15.55l-28.6-0.1
			l-0.27,21.51l28.6,0.16l0.46-37.11l30.84,0.17L620.32,251.88z"/>
		<path d="M636.38,284.67l1.06-85.19l90.59,0.5l-5.78,15.15l-54.32-0.3l-0.68,54.82l59.6,0.33l-6.58,15.15L636.38,284.67z"/>
		<path d="M804.11,236.45l34.06,49.32l-34.51-0.19l-32.51-45.73l-0.56,45.55l-30.84-0.17l1.5-121.25l30.84,0.17l-0.81,65.37
			l30.4-29.15l38.19,0.21L804.11,236.45z"/>
		<path d="M960.4,286.65l-108.81-0.6l0.2-15.81l76.21,0.42l0.67-53.77l32.59,0.18L960.4,286.65z M885.66,180.38l-0.45,36.27
			l43.46,0.24l-0.19,15.54l-75.89-0.35l0.83-67.27l112.32,0.62l-6.26,15.36L885.66,180.38z"/>
		<path d="M1008.72,216.7l-0.87,70.01l-30.84-0.17l1.5-121.25l30.84,0.17l-0.45,36.06l28.92,0.16l-0.19,15.13L1008.72,216.7z
			 M1067.76,287.03l-30.99-0.17l1.06-85.19l30.99,0.17L1067.76,287.03z"/>
		<path d="M1111.38,287.27l-30.84-0.17l1.06-85.19l30.84,0.17L1111.38,287.27z M1082.05,165.85l30.84,0.17l-0.32,26.15l-30.84-0.17
			L1082.05,165.85z"/>
		<path d="M1214.84,255.36l-59.44-0.33l-0.22,17.71l63.11,0.35l-6.73,14.73l-87.4-0.48l1.06-85.19l59.44,0.33l-0.19,15.55l-28.6-0.1
			l-0.27,21.51l28.6,0.16l0.46-37.11l30.84,0.17L1214.84,255.36z"/>
		<path d="M1262.69,288.1l-31.79-0.17l1.5-121.25l31.79,0.17L1262.69,288.1z"/>
		<path d="M1368.36,167.42l-1.5,121.25l-91.39-0.5l1.06-85.19l60.55,0.33l-0.19,15.13l-29.72-0.11l-0.68,54.82l29.72,0.16
			l0.87-70.01l0.45-36.06L1368.36,167.42z"/>
	</g>
	<g>
		<linearGradient id="SVGID_4_" gradientUnits="userSpaceOnUse" x1="165.2858" y1="229.2801" x2="375.277" y2="229.2801">
			<stop  offset="0" style="stop-color:#29ABE2"/>
			<stop  offset="0.5" style="stop-color:#29ABE2"/>
			<stop  offset="0.5226" style="stop-color:#239BD3"/>
			<stop  offset="0.5642" style="stop-color:#1A84BD"/>
			<stop  offset="0.6086" style="stop-color:#1373AD"/>
			<stop  offset="0.6577" style="stop-color:#0F69A4"/>
			<stop  offset="0.7202" style="stop-color:#0E66A1"/>
			<stop  offset="0.9944" style="stop-color:#0661A1"/>
		</linearGradient>
		<path class="st1" d="M324.1,233.83c0,0,7.9,9.15,13.04,26.35c2.11,7.06-38.9,25.15-38.9,25.15s18.8-16.23,1.56-24.54
			c-17.24-8.31-35.8-1.13-48.11-48.57c-1.72-6.65-9.87-9.28-13.73-9.28c-9.09,0-39.71,12.6-39.71,12.6s-1.93,3.18-3.74,4.93
			c0,0-1.68,1.62-1.82,1.75c-1.82,1.75-5.46,3.62-7.27,3.51c-1.64-0.1-1.82,0-3.64-1.75c-1.15-1.1-1.82-3.51-1.82-5.26
			c0-3.92,4.97-5.9,7.27-7.01c3.64-1.75,7.46-1.75,9.09,0c0.13,0.14,1.82,1.75,1.63,1.75c0,0,0,0,0,0c0,0,0,1.75,5.46-1.75
			c8.15-5.24,26.25-12.89,29.5-14.89c0.88-0.54,1.56-1.33,1.93-2.28c0.95-2.42,3.21-7.45,6.77-10.88
			c3.64-3.51,14.55-10.52,29.05-3.01c25.14,13.01,27.58,11.63,27.58,11.63s5.2-8.62,19.75-24.39c13.78-14.94,29.1-24.54,29.1-24.54
			l5.46,15.77c0,0,5.01-3.78,22.74-15.19c-0.52-8.39-9.57-15.08-20.7-15.08c0,0-63.31-27.31-84.38-27.31
			c-21.07,0-84.16,27.31-84.16,27.31c-11.45,0-20.73,7.08-20.73,15.81c0,0-1.04,94.47,9,116.32c14.28,31.04,95.88,96.01,95.88,96.01
			s79.7-64.39,96.24-95.43c4.63-8.68,6.98-28.94,8.13-50.19C363.07,222.04,346.87,230.45,324.1,233.83z"/>
	</g>
	<path class="st2" d="M375.33,144.69c0,0,2.75,95.04-8.89,116.89c-16.54,31.04-96.24,95.43-96.24,95.43S188.6,292.04,174.32,261
		c-10.05-21.85-9-116.32-9-116.32c0-8.73,9.28-15.81,20.73-15.81c0,0,63.09-27.31,84.16-27.31c21.06,0,84.38,27.31,84.38,27.31
		C366.04,128.86,375.33,135.95,375.33,144.69z"/>
</g>
</svg>
