<svg width="1204" height="257" viewBox="0 0 1204 257" fill="none" xmlns="http://www.w3.org/2000/svg">
<path d="M284.07 135.4L283.48 182.84L251.52 182.66L253.02 61.41L320.93 61.78L320.73 78.02L284.78 77.82L284.26 119.57L320.21 119.77L320.93 61.78L353.36 61.96L352.44 135.76L284.07 135.4Z" fill="white"/>
<path d="M455.68 151.21L396.24 150.88L396.02 168.59L459.13 168.94L452.4 183.67L365 183.19L366.06 98L425.5 98.33L425.31 113.88L396.71 113.78L396.44 135.29L425.04 135.45L425.5 98.34L456.34 98.51L455.68 151.21Z" fill="white"/>
<path d="M471.38 183.67L472.44 98.48L563.03 98.98L557.25 114.13L502.93 113.83L502.25 168.65L561.85 168.98L555.27 184.13L471.38 183.67Z" fill="white"/>
<path d="M639.11 135.45L673.17 184.77L638.66 184.58L606.15 138.85L605.59 184.4L574.75 184.23L576.25 62.98L607.09 63.15L606.28 128.52L636.68 99.37L674.87 99.58L639.11 135.45Z" fill="white"/>
<path d="M795.4 185.65L686.59 185.05L686.79 169.24L763 169.66L763.67 115.89L796.26 116.07L795.4 185.65ZM720.66 79.3799L720.21 115.65L763.67 115.89L763.48 131.43L687.59 131.08L688.42 63.8099L800.74 64.4299L794.48 79.7899L720.66 79.3799Z" fill="white"/>
<path d="M843.72 115.7L842.85 185.71L812.01 185.54L813.51 64.29L844.35 64.46L843.9 100.52L872.82 100.68L872.63 115.81L843.72 115.7ZM902.76 186.03L871.77 185.86L872.83 100.67L903.82 100.84L902.76 186.03Z" fill="white"/>
<path d="M946.38 186.27L915.54 186.1L916.6 100.91L947.44 101.08L946.38 186.27ZM917.05 64.85L947.89 65.02L947.57 91.17L916.73 91L917.05 64.85Z" fill="white"/>
<path d="M1049.84 154.36L990.4 154.03L990.18 171.74L1053.29 172.09L1046.56 186.82L959.16 186.34L960.22 101.15L1019.66 101.48L1019.47 117.03L990.87 116.93L990.6 138.44L1019.2 138.6L1019.66 101.49L1050.5 101.66L1049.84 154.36Z" fill="white"/>
<path d="M1097.69 187.1L1065.9 186.93L1067.4 65.6799L1099.19 65.8499L1097.69 187.1Z" fill="white"/>
<path d="M1203.36 66.42L1201.86 187.67L1110.47 187.17L1111.53 101.98L1172.08 102.31L1171.89 117.44L1142.17 117.33L1141.49 172.15L1171.21 172.31L1172.08 102.3L1172.53 66.24L1203.36 66.42Z" fill="white"/>
<path d="M159.1 132.83C159.1 132.83 167 141.98 172.14 159.18C174.25 166.24 133.24 184.33 133.24 184.33C133.24 184.33 152.04 168.1 134.8 159.79C117.56 151.48 98.9999 158.66 86.6899 111.22C84.9699 104.57 76.8199 101.94 72.9599 101.94C63.8699 101.94 33.2499 114.54 33.2499 114.54C33.2499 114.54 31.3199 117.72 29.5099 119.47C29.5099 119.47 27.8299 121.09 27.6899 121.22C25.8699 122.97 22.2299 124.84 20.4199 124.73C18.7799 124.63 18.5999 124.73 16.7799 122.98C15.6299 121.88 14.9599 119.47 14.9599 117.72C14.9599 113.8 19.9299 111.82 22.2299 110.71C25.8699 108.96 29.6899 108.96 31.3199 110.71C31.4499 110.85 33.1399 112.46 32.9499 112.46C32.9499 112.46 32.9499 114.21 38.4099 110.71C46.5599 105.47 64.6599 97.82 67.9099 95.82C68.7899 95.28 69.4699 94.49 69.8399 93.54C70.7899 91.12 73.0499 86.09 76.6099 82.66C80.2499 79.15 91.1599 72.14 105.66 79.65C130.8 92.66 133.24 91.28 133.24 91.28C133.24 91.28 138.44 82.66 152.99 66.89C166.77 51.95 182.09 42.35 182.09 42.35L187.55 58.12C187.55 58.12 192.56 54.34 210.29 42.93C209.77 34.54 200.72 27.85 189.59 27.85C189.59 27.85 126.28 0.539978 105.21 0.539978C84.1399 0.539978 21.0499 27.85 21.0499 27.85C9.59993 27.85 0.319937 34.93 0.319937 43.66C0.319937 43.66 -0.720063 138.13 9.31994 159.98C23.5999 191.02 105.2 255.99 105.2 255.99C105.2 255.99 184.9 191.6 201.44 160.56C206.07 151.88 208.42 131.62 209.57 110.37C198.07 121.04 181.87 129.45 159.1 132.83Z" fill="url(#paint0_linear_17_5)"/>
<defs>
<linearGradient id="paint0_linear_17_5" x1="0.285737" y1="128.28" x2="210.277" y2="128.28" gradientUnits="userSpaceOnUse">
<stop stop-color="#29ABE2"/>
<stop offset="0.5" stop-color="#29ABE2"/>
<stop offset="0.5226" stop-color="#239BD3"/>
<stop offset="0.5642" stop-color="#1A84BD"/>
<stop offset="0.6086" stop-color="#1373AD"/>
<stop offset="0.6577" stop-color="#0F69A4"/>
<stop offset="0.7202" stop-color="#0E66A1"/>
<stop offset="0.9944" stop-color="#0661A1"/>
</linearGradient>
</defs>
</svg>
